<?xml version="1.0" standalone="no"?>
<!DOCTYPE svg PUBLIC "-//W3C//DTD SVG 20010904//EN"
 "http://www.w3.org/TR/2001/REC-SVG-20010904/DTD/svg10.dtd">
<svg version="1.0" xmlns="http://www.w3.org/2000/svg"
 width="238.000000pt" height="238.000000pt" viewBox="0 0 238.000000 238.000000"
 preserveAspectRatio="xMidYMid meet">
<metadata>
Created by potrace 1.11, written by Peter Selinger 2001-2013
</metadata>
<g transform="translate(0.000000,238.000000) scale(0.100000,-0.100000)"
fill="#000000" stroke="none">
<path d="M201 2365 c-4 -5 -7 -345 -6 -755 1 -731 2 -747 23 -827 53 -201 142
-360 275 -496 180 -183 403 -277 667 -282 145 -3 213 5 327 40 328 100 554
320 657 637 14 43 28 96 31 120 4 23 10 47 13 53 12 18 9 1515 -2 1516 -6 1
-454 2 -994 2 -646 1 -986 -1 -991 -8z"/>
</g>
</svg>
